<svg xmlns="http://www.w3.org/2000/svg" xmlns:xlink="http://www.w3.org/1999/xlink" viewBox="-3441 10143 391 360">
  <defs>
    <style>
      .cls-1 {
        fill: url(#linear-gradient);
      }
    </style>
    <linearGradient id="linear-gradient" x2="0.98" y2="1" gradientUnits="objectBoundingBox">
      <stop offset="0" stop-color="#ff9600"/>
      <stop offset="1" stop-color="#de0063"/>
    </linearGradient>
  </defs>
  <path id="Path_71" data-name="Path 71" class="cls-1" d="M179.2,360a1.854,1.854,0,0,1-.7-.2,1.476,1.476,0,0,1-.8-1.6l2-12.8,16.2-107a11.408,11.408,0,0,1,11.3-9.6h4.7c32.8,0,51.6-14.7,57.5-45,3.3-16.7.2-28.2-9.9-37.2-.3,2.5-.8,5.1-1.2,7.2-7.6,33.4-31.4,50.3-70.7,50.3H169.9a4.675,4.675,0,0,0-4.4,3,.1.1,0,0,1-.1.1l-.1.2L153.5,282a.646.646,0,0,0,.2.5.764.764,0,0,0,.5.2h20.2a1.5,1.5,0,0,1,0,3H154.2a3.721,3.721,0,0,1-2.8-1.3,3.887,3.887,0,0,1-.9-2.9l11.8-74.9c0-.2.1-.3.2-.5l.2-.4a7.712,7.712,0,0,1,7.1-4.8h17.7c18.6,0,33.7-3.9,44.9-11.6,11.5-7.9,19.2-20.2,22.9-36.4.5-2.5,1-5.9,1.4-8.7-5.1-3.4-13.8-6.8-24.7-6.8H181.8a6.8,6.8,0,0,0-6.9,5.6l-6.2,42.1a1.513,1.513,0,0,1-3-.4l6.2-42.1a9.794,9.794,0,0,1,9.9-8.1H232c10.7,0,19.5,3,25.1,6.5.2-1.3.3-2.2.3-2.2,2.3-23.2-11.9-36.8-25.9-41.6-7-2.4-16-3.6-27.6-3.6H143.5a7.112,7.112,0,0,0-7.1,6.1L115.5,232a1.471,1.471,0,1,1-2.9-.5L133.5,99.2a10.1,10.1,0,0,1,10-8.6h60.4c12,0,21.3,1.2,28.6,3.8,15.1,5.3,30.3,19.8,27.8,44.8,0,.2-.2,1.7-.5,3.8a2.7,2.7,0,0,1,.8.7c11.4,9.7,15,22.6,11.5,40.6-6.2,31.9-26,47.5-60.4,47.5H207a8.314,8.314,0,0,0-8.3,7l-16.2,107-1.3,8.3L347.3,187.4c26.3-26.5,40.6-47.8,40.6-84.7C388.1,47.8,343,3,287.5,3a100.622,100.622,0,0,0-90.7,56.7,1.456,1.456,0,0,1-2.6,0A100.622,100.622,0,0,0,103.5,3C48.1,3,3,47.8,3,102.8c0,26.3,12.3,54,34.6,78l63.6,73.9c.1.1,6.6,7.7,16.2,8.9l23-.1h0a1.5,1.5,0,0,1,0,3l-23.1.1h-.2c-10.8-1.3-17.9-9.6-18.2-10L35.4,182.7C12.6,158.3,0,129.9,0,102.8,0,46.1,46.4,0,103.5,0a103.487,103.487,0,0,1,92.1,55.7A103.486,103.486,0,0,1,287.5,0C344.6,0,391,46.1,391,102.8c0,37.8-15.2,60.4-41.5,86.8l-169.3,170A1.777,1.777,0,0,1,179.2,360Z" transform="translate(-3441 10143)"/>
</svg>
