<svg xmlns="http://www.w3.org/2000/svg" xmlns:xlink="http://www.w3.org/1999/xlink" viewBox="-2870 10703 433.095 360">
  <defs>
    <style>
      .cls-1 {
        fill: url(#linear-gradient);
      }

      .cls-2 {
        fill: url(#linear-gradient-2);
      }

      .cls-3 {
        fill: url(#linear-gradient-3);
      }

      .cls-4 {
        fill: url(#linear-gradient-4);
      }

      .cls-5 {
        fill: url(#linear-gradient-5);
      }
    </style>
    <linearGradient id="linear-gradient" x1="-0.146" y1="-0.48" x2="1.152" y2="1.094" gradientUnits="objectBoundingBox">
      <stop offset="0" stop-color="#de0063"/>
      <stop offset="1" stop-color="#640487"/>
    </linearGradient>
    <linearGradient id="linear-gradient-2" x1="-6.349" y1="-24.164" x2="37.741" y2="12.269" xlink:href="#linear-gradient"/>
    <linearGradient id="linear-gradient-3" x1="0" y1="0" x2="1.18" y2="1.644" xlink:href="#linear-gradient"/>
    <linearGradient id="linear-gradient-4" x1="-1.654" y1="-6.359" x2="4.643" y2="1" xlink:href="#linear-gradient"/>
    <linearGradient id="linear-gradient-5" x1="-0.714" y1="-0.394" x2="1" y2="1.785" xlink:href="#linear-gradient"/>
  </defs>
  <g id="Group_293" data-name="Group 293" transform="translate(-2870 10702.975)">
    <path id="Path_749" data-name="Path 749" class="cls-1" d="M367.942,159.124a15.181,15.181,0,0,0-14,9.269c-41.416-7.2-53.644-55.616-53.742-56.109a1.363,1.363,0,0,0-1.183-1.085,1.467,1.467,0,0,0-1.479.69C286.1,130.429,286.1,153.4,286.1,160.9c0,10.847-3.649,15.285-6.508,18.933-1.972,2.465-3.846,4.733-3.846,8.283,0,3.944,5.719,7.987,7.987,9.467l2.169,19.525c1.578,14.989,10.946,22.68,27.808,22.68h13.411V276.47c-20.018,14.4-32.048,20.807-58.969,33.034-2.367-5.621-11.242-26.329-12.819-30.372-2.958-7.889-8.776-11.34-17.651-10.453L214.6,270.455l-29.189-24.948a7.6,7.6,0,0,0-10.551-.592l-.394.394c-.1.1-.2.1-.3.2-18.539,18.539-53.94,23.568-81.156-.1a1.466,1.466,0,0,0-1.972,2.169c13.411,11.636,28.7,16.566,43.191,16.566a60.57,60.57,0,0,0,38.458-13.51,8.071,8.071,0,0,0,1.578,3.55l33.922,49.6H60.871a6.187,6.187,0,0,1-6.212-6.212V193.145a6.187,6.187,0,0,1,6.212-6.212H208.884a6.187,6.187,0,0,1,6.212,6.212v61.927a1.479,1.479,0,1,0,2.958,0V193.145a9.217,9.217,0,0,0-9.171-9.171H60.871a9.217,9.217,0,0,0-9.171,9.171V297.671a9.217,9.217,0,0,0,9.171,9.171H173.483A5.866,5.866,0,0,0,172.3,309.9c-.3,2.86,1.282,6.607,6.8,7.889l37.472,8.185a27.084,27.084,0,0,1,16.172,11.537c.2.3,1.183,2.268,1.282,2.367a1.539,1.539,0,0,0,1.282.789,1.828,1.828,0,0,0,.69-.2,1.608,1.608,0,0,0,.69-1.972s-.986-1.874-1.381-2.564h0a30.091,30.091,0,0,0-17.947-12.819l-37.472-8.283c-3.649-.887-4.733-2.958-4.536-4.733a3.819,3.819,0,0,1,3.944-3.353h31.95a1.321,1.321,0,0,0,1.282-.789,1.338,1.338,0,0,0-.1-1.479l-35.6-51.967a.1.1,0,0,0-.1-.1c-1.775-2.268-1.085-4.339.1-5.424,1.479-1.282,4.142-1.676,6.508.592l29.682,25.441a1.483,1.483,0,0,0,1.085.394l23.765-1.874c7.593-.69,12.129,1.972,14.594,8.579,1.775,4.733,12.918,30.766,13.411,31.851a1.528,1.528,0,0,0,.789.789,2.4,2.4,0,0,0,1.183,0c28.3-12.918,40.529-19.426,61.434-34.415a.1.1,0,0,0,.1-.1l.1-.1.1-.1.1-.1a450.685,450.685,0,0,1,.2-.2V238.209a1.517,1.517,0,0,0-1.479-1.479h-14.89c-15.285,0-23.371-6.508-24.85-20.018L286.391,196.4a1.422,1.422,0,0,0-.69-1.085c-2.958-1.775-7.2-5.325-7.2-7.3,0-2.465,1.381-4.142,3.156-6.41,3.057-3.747,7.2-8.875,7.2-20.807,0-6.9,0-27.216,9.269-44.473,3.747,11.636,18.736,49.4,56.306,55.123h.1a1.6,1.6,0,0,0,1.676-.986,12.2,12.2,0,0,1,11.636-8.382,12.331,12.331,0,0,1,12.326,12.326v.986c0,8.185-3.649,14.89-10.748,20.116a35.919,35.919,0,0,1-11.044,5.424,1.471,1.471,0,0,0,.69,2.86A41.156,41.156,0,0,0,371,197.976c7.889-5.719,12.03-13.51,12.03-22.582v-.986A14.947,14.947,0,0,0,367.942,159.124Z" transform="translate(-0.719 -1.545)"/>
    <path id="Path_750" data-name="Path 750" class="cls-2" d="M64.7,246.33a4.945,4.945,0,0,0,4.93,4.93,4.93,4.93,0,1,0-4.93-4.93Zm6.8,0a1.972,1.972,0,1,1-1.972-1.972A1.978,1.978,0,0,1,71.5,246.33Z" transform="translate(-0.899 -3.355)"/>
    <path id="Path_751" data-name="Path 751" class="cls-3" d="M2.958,51.771c33.527-.2,71.394-5.917,106.794-16.271,31.358-9.171,57.785-21.1,71.2-32.048,28.6,23.469,108.372,48.319,183.513,48.319a1.479,1.479,0,1,0,0-2.958c-82.142,0-158.762-28.1-182.527-48.417a1.5,1.5,0,0,0-1.972,0c-12.819,10.946-39.444,22.976-71.1,32.245C73.267,42.994,35.105,48.812,1.479,48.812A1.452,1.452,0,0,0,0,50.291C0,106.2,15.482,165.961,43.586,218.421a1.539,1.539,0,0,0,1.282.789,1.828,1.828,0,0,0,.69-.2,1.468,1.468,0,0,0,.592-1.972C18.539,165.369,3.254,106.795,2.958,51.771Z"/>
    <path id="Path_752" data-name="Path 752" class="cls-4" d="M186.738,361.552a306.783,306.783,0,0,1-65.773-45.558,1.466,1.466,0,1,0-1.972,2.169,305.671,305.671,0,0,0,66.364,46.051,1.828,1.828,0,0,0,.69.2,1.421,1.421,0,0,0,1.282-.789A1.5,1.5,0,0,0,186.738,361.552Z" transform="translate(-1.647 -4.387)"/>
    <path id="Path_753" data-name="Path 753" class="cls-5" d="M410.393,87.584C394.615,73.187,373.414,65.2,350.537,65.2c-32.443,0-56.208,15.58-81.846,53.644-23.864,35.4-36.486,41.416-55.813,41.416-19.722,0-27.019-15.58-27.019-25.343V74.962a1.479,1.479,0,1,0-2.958,0v59.955c0,10.946,8.185,28.3,29.977,28.3,22.877,0,35.894-9.565,58.278-42.7,25.441-37.669,47.727-52.362,79.48-52.362,22.089,0,42.7,7.692,57.884,21.6a74.057,74.057,0,0,1,24.061,55.222c0,52.46-44.867,82.438-45.262,82.734a1.46,1.46,0,0,0-.394,2.071,1.686,1.686,0,0,0,1.282.69,1.858,1.858,0,0,0,.789-.2c.493-.3,46.642-31.062,46.642-85.2C435.341,122.69,426.466,102.277,410.393,87.584Z" transform="translate(-2.543 -0.906)"/>
  </g>
</svg>
